#!OML:ASF E:/inclinewalkrobotboard/Project1/Captureday1/Session1/subject1.ASF
:FULLY-SPECIFIED
:DEGREES
326
root 0 0 0 -1.7200855320312711 -5.343798102301076 -7.327680807938749
lowerback 10.096204465496477 2.4647216544575867 5.62885998386064
upperback 0.0476991220362083 4.017928540347009 1.442757659866818
thorax -5.531468988107119 1.84968409825118 -2.2218059093587463
lowerneck -14.707833091047961 -3.3335599119563026 -0.9419112735822164
upperneck 17.322628373386387 -4.586480973240967 1.3591023211033422
head 7.976076403338527 -2.1361217120987623 0.10131273778104183
rclavicle -1.5620683291209813E-16 -4.912268483267891E-17
rhumerus -19.220612683585514 -6.816303012373797 -66.9337531509129
rradius 62.02582200131135
rwrist -8.638798524896634
rhand -13.164046129634853 -10.277746298895721
rfingers 7.125019999999856
rthumb 12.963912748533465 -39.49148893764833
lclavicle -8.751223260131818E-16 -4.051385716138039E-16
lhumerus -40.3188871086348 0.3227244044231895 83.35091997232551
lradius 39.133799410699496
lwrist 2.3946719945780046
lhand -18.729095980860443 -1.2913587053000608
lfingers 7.125019999999864
lthumb 7.455272034761827 28.185556859427656
rfemur -4.784974111689967 2.8044947689770243 15.76797456372206
rtibia 24.734525897511965
rfoot -3.248262649094962 -2.6061649598943717
rtoes 3.098688454523626
lfemur -14.70612348117832 -2.036517959346366 -13.089954574216277
ltibia 35.313932716275474
lfoot -10.191554176607971 1.8245534952304858
ltoes -21.718556257877832
327
root 0 0 0 -1.7074221184641951 -5.320249761339472 -7.297915789023664
lowerback 10.093075658203471 2.4597523054619552 5.5844599554676275
upperback 0.04158824299700442 4.006582316367343 1.4311943569507621
thorax -5.53626106014622 1.8440547435257733 -2.2077427108630827
lowerneck -14.65301683968097 -3.329251555407586 -0.9291290321388319
upperneck 17.25455815331472 -4.585170176912049 1.373677166682967
head 7.951220979410982 -2.134150563834924 0.10624057844400181
rclavicle -1.625625133799854E-16 -5.435727210223297E-17
rhumerus -19.327663555065474 -6.9264042328837965 -67.04740349734965
rradius 61.68081113902357
rwrist -8.511935896839418
rhand -13.20861125139451 -9.961882331987624
rfingers 7.125019999999858
rthumb 12.920637930634477 -39.18166796070676
lclavicle -8.802468402299573E-16 -4.1071946426927197E-16
lhumerus -40.42794019146518 0.32890342086356866 83.36149900146472
lradius 39.282160379098826
lwrist 2.346605220150412
lhand -18.613970713428728 -1.6439504064716317
lfingers 7.1250199999998625
lthumb 7.564633127974927 27.82906317108195
rfemur -5.435854746126803 2.477357222592172 15.199179082557379
rtibia 26.118985386808674
rfoot -2.187113664791601 -2.494360703963628
rtoes 3.5926491582604543
lfemur -13.969784888410913 -2.1634776017475845 -13.354692324776462
ltibia 34.43440972881156
lfoot -10.719913647840864 2.08710049867142
ltoes -22.153649539945626
328
root 0 0 0 -1.6956468541132477 -5.29771723222342 -7.2695061108492345
lowerback 10.090206949389392 2.4549398685135757 5.542622195624392
upperback 0.03579684679289841 3.9957020682837094 1.4204433742957476
thorax -5.541170918446817 1.8387337118920288 -2.194439438905066
lowerneck -14.60275031810007 -3.325426442982953 -0.9174493579774425
upperneck 17.190288443845727 -4.5841542278474545 1.387515676336923
head 7.9281678885934905 -2.132439253936194 0.11090639602181207
rclavicle -1.6743328568436E-16 -5.961238225606156E-17
rhumerus -19.413471553119535 -7.017045332621858 -67.14159403395604
rradius 61.39507196490528
rwrist -8.40840614547561
rhand -13.245979937291521 -9.699204992905702
rfingers 7.125019999999859
rthumb 12.884400670642647 -38.92380915486943
lclavicle -8.787060139761333E-16 -4.1268575458725533E-16
lhumerus -40.47067810990686 0.3275857011654826 83.36587671894974
lradius 39.34870866310489
lwrist 2.3285888316838546
lhand -18.566602513651063 -1.790945625428689
lfingers 7.125019999999861
lthumb 7.61008265859981 27.6805146420196
rfemur -5.9558607009439815 2.3767175164004137 15.073552402853792
rtibia 26.758257037745107
rfoot -1.8869203928001874 -2.557102446390357
rtoes 3.7282249177026356
lfemur -13.223344086721182 -2.2894145335032086 -13.627844329671932
ltibia 33.55678287943962
lfoot -11.245623456169103 2.3420438551100045
ltoes -22.570652546468356
329
root 0 0 0 -1.6845154928762094 -5.276737182797687 -7.244028600665262
lowerback 10.087369679058343 2.45019618068324 5.505001140422884
upperback 0.03042154761453314 3.985124682997217 1.4111314116369496
thorax -5.5459417002391165 1.8336834544277494 -2.1822115878409427
lowerneck -14.558381024139594 -3.321951743970983 -0.906913698131819
upperneck 17.131324079651666 -4.583095659527992 1.4001458722932516
head 7.9077520923279465 -2.1308213583471045 0.11509731924097277
rclavicle -1.7015501347749843E-16 -6.342876105027078E-17
rhumerus -19.467953206557397 -7.075556361177631 -67.20345995303899
rradius 61.20839376272711
rwrist -8.34182249485821
rhand -13.270629538787016 -9.527305688506058
rfingers 7.125019999999861
rthumb 12.86057737029035 -38.75490057058128
lclavicle -8.724571256535782E-16 -4.1243685282955954E-16
lhumerus -40.46951893457748 0.321432250838796 83.36614317397235
lradius 39.36128801603882
lwrist 2.3302265947194067
lhand -18.563737011027104 -1.8024859238932365
lfingers 7.125019999999861
lthumb 7.6133424908846905 27.668788910235072
rfemur -6.174062781267329 2.4616884559466645 15.20913429611321
rtibia 26.432118566140627
rfoot -2.2469227698533216 -2.7157862870764817
rtoes 3.498647923000466
lfemur -12.381836344985889 -2.437464313360799 -13.919369874568492
ltibia 32.538312808020684
lfoot -11.86867060795716 2.65664918137656
ltoes -23.11673934409028
330
root 0 0 0 -1.6755745193610605 -5.255162655344865 -7.216836151507938
lowerback 10.085069023651148 2.443177358726003 5.467985211763182
upperback 0.026239972872119266 3.971198553106083 1.4041484382276055
thorax -5.54985915340503 1.8272894059554727 -2.1675722426386104
lowerneck -14.524973684456267 -3.318573088266702 -0.8994189140726112
upperneck 17.084414950490338 -4.581017090026464 1.4099052876214944
head 7.892382914209901 -2.1289925493520245 0.11850658857080187
rclavicle -1.7151998935950118E-16 -6.605380070486888E-17
rhumerus -19.502295551669793 -7.112726095406752 -67.24310356921663
rradius 61.08894693296268
rwrist -8.299816415634659
rhand -13.286471255389982 -9.417048003160154
rfingers 7.125019999999861
rthumb 12.84527302989527 -38.64656781111166
lclavicle -8.653241311419E-16 -4.1169561801758773E-16
lhumerus -40.44439522746166 0.31432626415913134 83.36407984491612
lradius 39.34069329070425
lwrist 2.342065693832204
lhand -18.586002995893278 -1.7366039504835395
lfingers 7.125019999999861
lthumb 7.592521259341018 27.735470953248928
rfemur -6.127585139429129 2.6352695215894535 15.419213350961076
rtibia 25.45679010444271
rfoot -2.9389992790842054 -2.889632118879094
rtoes 3.0605022562710094
lfemur -11.419440369887806 -2.6087114089174652 -14.252377104335043
ltibia 31.36307310574204
lfoot -12.584730849918774 3.0179440290680626
ltoes -23.744525858224897
331
root 0 0 0 -1.6698899114799612 -5.229789576896308 -7.181599292181849
lowerback 10.083689559990122 2.431540633685623 5.425533509040389
upperback 0.023680455139350354 3.950148593442642 1.399515103811726
thorax -5.552535714385353 1.8178310434341816 -2.1465215411012233
lowerneck -14.504257872749625 -3.3149145949192618 -0.8961707562206003
upperneck 17.05227118652413 -4.577096492924165 1.4160578024592216
head 7.882866640628846 -2.1266618659302705 0.12114905938420989
rclavicle -1.7233322043719578E-16 -6.823145999866215E-17
rhumerus -19.529661147389376 -7.141926360338853 -67.27366681358387
rradius 60.9960229876308
rwrist -8.267034947820948
rhand -13.298675125685785 -9.331351427015397
rfingers 7.125019999999862
rthumb 12.833431271196215 -38.562380955868335
lclavicle -8.600041066287787E-16 -4.11352760405419E-16
lhumerus -40.4105997609592 0.30914578601552406 83.3610519713548
lradius 39.30294277336088
lwrist 2.356963304545175
lhand -18.618623920580394 -1.6376552446515706
lfingers 7.125019999999862
lthumb 7.561566615445811 27.83579011936324
rfemur -5.961816604315349 2.792132419357995 15.554452268657593
rtibia 24.37548210046941
rfoot -3.581321703814263 -3.0151911509630756
rtoes 2.6282720690542263
lfemur -10.359306378433397 -2.7914652292811404 -14.643647184825848
ltibia 30.093821962881922
lfoot -13.333865224073804 3.376367281989693
ltoes -24.324334070409122
332
root 0 0 0 -1.6674923744978365 -5.196798023464469 -7.131723286612049
lowerback 10.083282436554335 2.4132980830381165 5.370300882987116
upperback 0.022639932081315484 3.918584896111235 1.3964322898686783
thorax -5.5540241374199315 1.8037212841827954 -2.115260163359288
lowerneck -14.49386521911658 -3.310432271267911 -0.8972011663240951
upperneck 17.032433694657467 -4.57066900823413 1.4190033700438778
head 7.878129633551988 -2.1235136991856858 0.12335732804402877
rclavicle -1.731613332689746E-16 -7.051102864536058E-17
rhumerus -19.558003492740706 -7.171584323056657 -67.30354043924419
rradius 60.903798770417694
rwrist -8.233811611956707
rhand -13.310593141641053 -9.246647458276742
rfingers 7.125019999999862
rthumb 12.821820008758987 -38.47912649152825
lclavicle -8.575820319947562E-16 -4.1171664484746184E-16
lhumerus -40.37569150679995 0.3070167503585375 83.35774366721084
lradius 39.25652979153727
lwrist 2.3715141943041784
lhand -18.65420675416025 -1.5281911682794949
lfingers 7.1250199999998625
lthumb 7.527527072550484 27.94716346687875
rfemur -5.844504562205619 2.8488967445294033 15.516276651747493
rtibia 23.699462841993387
rfoot -3.8641511611553128 -3.055707814148148
rtoes 2.387369747292336
lfemur -9.227270450625646 -2.975621528601495 -15.10211381787149
ltibia 28.786544383046913
lfoot -14.066256939042805 3.693327827204364
ltoes -24.755876270461286
333
root 0 0 0 -1.6678258159211514 -5.1513461069038 -7.059512297364904
lowerback 10.08370741067435 2.3861828381886365 5.293213628911995
upperback 0.02275202672271842 3.872533747159432 1.3937029873001978
thorax -5.554587389379607 1.7830993181591652 -2.069383685153012
lowerneck -14.489364407829454 -3.3043625178678164 -0.9019734304372149
upperneck 17.019734820640302 -4.5609156947268525 1.4196853641508738
head 7.876139881457636 -2.1191175263940547 0.12564042832796163
rclavicle -1.7456537611404538E-16 -7.301128601462729E-17
rhumerus -19.593916454489516 -7.209276355836972 -67.34034758672598
rradius 60.78877503428756
rwrist -8.19170550241335
rhand -13.325370952514675 -9.140928828022478
rfingers 7.1250199999998625
rthumb 12.807402196672667 -38.375210795808435
lclavicle -8.576874413820397E-16 -4.125960037595173E-16
lhumerus -40.33707881190527 0.30749121083334086 83.35392790604413
lradius 39.198485381581946
lwrist 2.3869556354278627
lhand -18.695380084884953 -1.4006225178820362
lfingers 7.125019999999863
lthumb 7.487974590038679 28.07758811945709
rfemur -5.900864569130376 2.781266175498356 15.30366630713257
rtibia 23.681512945194598
rfoot -3.6920856256278407 -3.0211216453044587
rtoes 2.40628768791822
lfemur -8.00561408029825 -3.1619707358072238 -15.643062957326109
ltibia 27.428272769182975
lfoot -14.780828871173401 3.962394842369723
ltoes -25.008017888704146
